<svg xmlns="http://www.w3.org/2000/svg" viewBox="0 0 22 22" width="220" height="220">
  <rect width="22" height="22" fill="#1d1d1f"/>
  <!-- Egg silhouette as a single white shape with cut-out fire spots via even-odd fill -->
  <path fill="#ffffff" fill-rule="evenodd" d="
    M11 3
    C 15 3, 18.5 8, 18.5 13
    C 18.5 17, 15.5 19, 11 19
    C 6.5 19, 3.5 17, 3.5 13
    C 3.5 8, 7 3, 11 3 Z

    M8.2 9.2
    C 7.4 9.8, 7.6 11.2, 8.6 11.4
    C 9.6 11.6, 10.2 10.4, 9.6 9.6
    C 9.2 9.0, 8.7 8.8, 8.2 9.2 Z

    M13 11.4
    C 12.0 11.8, 12.2 13.4, 13.4 13.6
    C 14.6 13.8, 15.2 12.4, 14.4 11.6
    C 13.9 11.1, 13.4 11.1, 13 11.4 Z

    M8.8 14.2
    C 8.2 14.4, 8.3 15.3, 9.0 15.4
    C 9.7 15.5, 10.0 14.6, 9.5 14.2
    C 9.2 13.9, 9.0 14.0, 8.8 14.2 Z
  "/>
</svg>
