<svg xmlns="http://www.w3.org/2000/svg" viewBox="0 0 22 22" shape-rendering="crispEdges" width="220" height="220">
  <rect width="22" height="22" fill="#1d1d1f"/>
  <g fill="#ffffff">
    <rect x="10" y="2" width="2" height="1"/>
    <rect x="9"  y="3" width="1" height="1"/>
    <rect x="12" y="3" width="1" height="1"/>
    <rect x="10" y="4" width="2" height="1"/>
    <rect x="7"  y="5" width="8" height="1"/>
    <rect x="6"  y="6" width="10" height="1"/>
    <rect x="5"  y="7" width="12" height="4"/>
    <rect x="6"  y="11" width="10" height="1"/>
    <rect x="6"  y="12" width="10" height="1"/>
    <rect x="5"  y="13" width="12" height="3"/>
    <rect x="6"  y="16" width="10" height="1"/>
    <rect x="7"  y="17" width="8"  height="1"/>
    <rect x="7"  y="18" width="2" height="1"/>
    <rect x="13" y="18" width="2" height="1"/>
  </g>
  <g fill="#1d1d1f">
    <rect x="8"  y="8" width="1" height="2"/>
    <rect x="13" y="8" width="1" height="2"/>
    <rect x="10" y="10" width="2" height="1"/>
    <rect x="5"  y="13" width="1" height="1"/>
    <rect x="7"  y="13" width="1" height="1"/>
    <rect x="9"  y="13" width="1" height="1"/>
    <rect x="11" y="13" width="1" height="1"/>
    <rect x="13" y="13" width="1" height="1"/>
    <rect x="15" y="13" width="1" height="1"/>
  </g>
</svg>
