<svg xmlns="http://www.w3.org/2000/svg" viewBox="0 0 22 22" width="220" height="220">
  <rect width="22" height="22" fill="#1d1d1f"/>
  <g fill="#ffffff" fill-rule="evenodd">
    <!-- flame tuft -->
    <path d="M11 2.2
             C 12.2 3.4, 12.2 4.4, 11 5.2
             C 9.8 4.4, 9.8 3.4, 11 2.2 Z"/>
    <!-- head + body as one soft blob with shell bottom -->
    <path d="M11 4.8
             C 15 4.8, 17 7.8, 17 10.8
             C 17 12.2, 16.4 13.2, 15.8 13.8
             C 17 14.6, 17.2 16.6, 16.2 17.6
             C 15.2 18.6, 13.6 18.6, 12.8 17.8
             L 9.2 17.8
             C 8.4 18.6, 6.8 18.6, 5.8 17.6
             C 4.8 16.6, 5 14.6, 6.2 13.8
             C 5.6 13.2, 5 12.2, 5 10.8
             C 5 7.8, 7 4.8, 11 4.8 Z

             M8.4 9.6
             C 7.9 9.6, 7.6 10.2, 7.6 10.8
             C 7.6 11.4, 7.9 12, 8.4 12
             C 8.9 12, 9.2 11.4, 9.2 10.8
             C 9.2 10.2, 8.9 9.6, 8.4 9.6 Z

             M13.6 9.6
             C 13.1 9.6, 12.8 10.2, 12.8 10.8
             C 12.8 11.4, 13.1 12, 13.6 12
             C 14.1 12, 14.4 11.4, 14.4 10.8
             C 14.4 10.2, 14.1 9.6, 13.6 9.6 Z

             M9.8 12.8
             C 10.4 13.6, 11.6 13.6, 12.2 12.8
             C 11.6 13.2, 10.4 13.2, 9.8 12.8 Z"/>
  </g>
</svg>
